<svg width="166" height="171" viewBox="0 0 166 171" fill="none" xmlns="http://www.w3.org/2000/svg">
<g opacity="0.5" clip-path="url(#clip0)">
<path d="M16.651 150.537C19.4447 157.204 16.2668 170.829 16.2668 170.829C16.2668 170.829 4.33145 163.555 1.53775 156.888C-1.25595 150.221 -0.137473 143.394 4.03593 141.64C8.20933 139.887 13.8573 143.87 16.651 150.537Z" fill="#F2F2F2"/>
<path d="M89.4594 62.2707C91.5763 62.2707 93.2924 60.5521 93.2924 58.4322C93.2924 56.3123 91.5763 54.5938 89.4594 54.5938C87.3425 54.5938 85.6265 56.3123 85.6265 58.4322C85.6265 60.5521 87.3425 62.2707 89.4594 62.2707Z" fill="#001D6D"/>
<path d="M89.4594 36.8449C91.5763 36.8449 93.2924 35.1264 93.2924 33.0064C93.2924 30.8865 91.5763 29.168 89.4594 29.168C87.3425 29.168 85.6265 30.8865 85.6265 33.0064C85.6265 35.1264 87.3425 36.8449 89.4594 36.8449Z" fill="#001D6D"/>
<path d="M89.4594 11.4191C91.5763 11.4191 93.2924 9.70058 93.2924 7.58065C93.2924 5.46073 91.5763 3.74219 89.4594 3.74219C87.3425 3.74219 85.6265 5.46073 85.6265 7.58065C85.6265 9.70058 87.3425 11.4191 89.4594 11.4191Z" fill="#001D6D"/>
<path d="M103.418 0C103.112 0.00036032 102.819 0.122243 102.603 0.338911C102.386 0.555579 102.265 0.849341 102.264 1.15576V14.0038C102.265 14.3102 102.386 14.604 102.603 14.8207C102.819 15.0373 103.112 15.1592 103.418 15.1596H164.846C165.152 15.1592 165.446 15.0373 165.662 14.8207C165.878 14.604 166 14.3102 166 14.0038V1.15576C166 0.849341 165.878 0.555579 165.662 0.338911C165.446 0.122243 165.152 0.00036032 164.846 0H103.418Z" fill="#EBEBEB"/>
<path d="M103.833 0.902344C103.655 0.902525 103.485 0.973177 103.36 1.0988C103.234 1.22442 103.164 1.39476 103.164 1.57244V13.5894C103.164 13.767 103.234 13.9374 103.36 14.063C103.485 14.1886 103.655 14.2593 103.833 14.2595H164.431C164.608 14.2593 164.778 14.1886 164.904 14.063C165.029 13.9373 165.1 13.767 165.1 13.5894V1.57244C165.1 1.39479 165.029 1.22446 164.904 1.09883C164.778 0.973199 164.608 0.902536 164.431 0.902344H103.833Z" fill="white"/>
<path d="M160.626 10.9627C160.769 10.963 160.91 10.9349 161.043 10.8803C161.175 10.8257 161.295 10.7455 161.396 10.6444C161.497 10.5433 161.577 10.4232 161.632 10.291C161.687 10.1588 161.715 10.0171 161.715 9.87395C161.715 9.73084 161.687 9.58912 161.632 9.45692C161.577 9.32472 161.497 9.20462 161.396 9.1035C161.295 9.00237 161.175 8.92221 161.043 8.86758C160.91 8.81296 160.769 8.78495 160.626 8.78516H109.371C109.083 8.78558 108.807 8.90047 108.603 9.10462C108.399 9.30876 108.285 9.58546 108.285 9.87395C108.285 10.1624 108.399 10.4391 108.603 10.6433C108.807 10.8474 109.083 10.9623 109.371 10.9627H160.626Z" fill="#C4C4C4"/>
<path d="M131.426 6.23228C131.715 6.23228 131.991 6.11757 132.195 5.91338C132.399 5.70919 132.513 5.43225 132.513 5.14348C132.513 4.85472 132.399 4.57778 132.195 4.37359C131.991 4.1694 131.715 4.05469 131.426 4.05469H109.371C109.083 4.05469 108.806 4.1694 108.602 4.37359C108.398 4.57778 108.284 4.85472 108.284 5.14348C108.284 5.43225 108.398 5.70919 108.602 5.91338C108.806 6.11757 109.083 6.23228 109.371 6.23228H131.426Z" fill="#C4C4C4"/>
<path d="M103.418 25.4258C103.112 25.4261 102.819 25.548 102.603 25.7647C102.386 25.9814 102.265 26.2751 102.264 26.5815V39.4296C102.265 39.736 102.386 40.0298 102.603 40.2465C102.819 40.4631 103.112 40.585 103.418 40.5854H164.846C165.152 40.585 165.446 40.4631 165.662 40.2465C165.878 40.0298 166 39.736 166 39.4296V26.5815C166 26.2751 165.878 25.9814 165.662 25.7647C165.446 25.548 165.152 25.4261 164.846 25.4258H103.418Z" fill="#EBEBEB"/>
<path d="M103.833 26.3281C103.655 26.3283 103.485 26.399 103.36 26.5246C103.234 26.6502 103.164 26.8205 103.164 26.9982V39.0151C103.164 39.1928 103.234 39.3631 103.36 39.4888C103.485 39.6144 103.655 39.6851 103.833 39.6852H164.431C164.608 39.685 164.778 39.6144 164.904 39.4887C165.029 39.3631 165.1 39.1928 165.1 39.0151V26.9982C165.1 26.8206 165.029 26.6502 164.904 26.5246C164.778 26.399 164.608 26.3283 164.431 26.3281H103.833Z" fill="white"/>
<path d="M160.626 36.3885C160.769 36.3887 160.91 36.3607 161.043 36.3061C161.175 36.2515 161.295 36.1713 161.396 36.0702C161.497 35.9691 161.577 35.849 161.632 35.7168C161.687 35.5846 161.715 35.4428 161.715 35.2997C161.715 35.1566 161.687 35.0149 161.632 34.8827C161.577 34.7505 161.497 34.6304 161.396 34.5293C161.295 34.4282 161.175 34.348 161.043 34.2934C160.91 34.2387 160.769 34.2107 160.626 34.2109H109.371C109.083 34.2114 108.807 34.3263 108.603 34.5304C108.399 34.7345 108.285 35.0112 108.285 35.2997C108.285 35.5882 108.399 35.8649 108.603 36.0691C108.807 36.2732 109.083 36.3881 109.371 36.3885H160.626Z" fill="#C4C4C4"/>
<path d="M131.426 31.662C131.715 31.662 131.991 31.5472 132.195 31.3431C132.399 31.1389 132.513 30.8619 132.513 30.5732C132.513 30.2844 132.399 30.0075 132.195 29.8033C131.991 29.5991 131.715 29.4844 131.426 29.4844H109.371C109.228 29.4844 109.087 29.5125 108.955 29.5673C108.823 29.622 108.703 29.7022 108.602 29.8033C108.501 29.9044 108.421 30.0244 108.366 30.1565C108.312 30.2886 108.284 30.4302 108.284 30.5732C108.284 30.7161 108.312 30.8577 108.366 30.9898C108.421 31.1219 108.501 31.242 108.602 31.3431C108.703 31.4442 108.823 31.5244 108.955 31.5791C109.087 31.6338 109.228 31.662 109.371 31.662H131.426Z" fill="#C4C4C4"/>
<path d="M103.418 50.8516C103.112 50.8519 102.819 50.9738 102.603 51.1905C102.386 51.4071 102.265 51.7009 102.264 52.0073V64.8554C102.265 65.1618 102.386 65.4556 102.603 65.6722C102.819 65.8889 103.112 66.0108 103.418 66.0112H164.846C165.152 66.0108 165.446 65.8889 165.662 65.6722C165.878 65.4556 166 65.1618 166 64.8554V52.0073C166 51.7009 165.878 51.4071 165.662 51.1905C165.446 50.9738 165.152 50.8519 164.846 50.8516H103.418Z" fill="#EBEBEB"/>
<path d="M103.833 51.7539C103.655 51.7541 103.485 51.8247 103.36 51.9504C103.234 52.076 103.164 52.2463 103.164 52.424V64.4409C103.164 64.6186 103.234 64.7889 103.36 64.9145C103.485 65.0402 103.655 65.1108 103.833 65.111H164.431C164.608 65.1108 164.778 65.0402 164.904 64.9145C165.029 64.7889 165.1 64.6186 165.1 64.4409V52.424C165.1 52.2463 165.029 52.076 164.904 51.9504C164.778 51.8248 164.608 51.7541 164.431 51.7539H103.833Z" fill="white"/>
<path d="M160.626 61.8182C160.769 61.8184 160.91 61.7904 161.043 61.7358C161.175 61.6812 161.295 61.601 161.396 61.4999C161.497 61.3988 161.577 61.2786 161.632 61.1464C161.687 61.0142 161.715 60.8725 161.715 60.7294C161.715 60.5863 161.687 60.4446 161.632 60.3124C161.577 60.1802 161.497 60.0601 161.396 59.959C161.295 59.8578 161.175 59.7777 161.043 59.723C160.91 59.6684 160.769 59.6404 160.626 59.6406H109.371C109.083 59.641 108.807 59.7559 108.603 59.9601C108.399 60.1642 108.285 60.4409 108.285 60.7294C108.285 61.0179 108.399 61.2946 108.603 61.4988C108.807 61.7029 109.083 61.8178 109.371 61.8182H160.626Z" fill="#C4C4C4"/>
<path d="M131.426 57.0877C131.715 57.0877 131.991 56.973 132.195 56.7688C132.399 56.5647 132.513 56.2877 132.513 55.999C132.513 55.7102 132.399 55.4332 132.195 55.2291C131.991 55.0249 131.715 54.9102 131.426 54.9102H109.371C109.083 54.9102 108.806 55.0249 108.602 55.2291C108.398 55.4332 108.284 55.7102 108.284 55.999C108.284 56.2877 108.398 56.5647 108.602 56.7688C108.806 56.973 109.083 57.0877 109.371 57.0877H131.426Z" fill="#C4C4C4"/>
<path d="M35.1608 106.917C34.7098 106.846 34.279 106.68 33.8973 106.429C33.5156 106.178 33.1917 105.849 32.9473 105.463C32.703 105.077 32.5438 104.643 32.4803 104.19C32.4169 103.737 32.4507 103.276 32.5795 102.838L35.0099 94.5625L38.703 95.256L38.8618 103.683C38.8707 104.152 38.7769 104.617 38.5872 105.045C38.3975 105.474 38.1165 105.856 37.7637 106.164C37.411 106.472 36.9952 106.699 36.5456 106.829C36.0959 106.959 35.6232 106.989 35.1608 106.917Z" fill="#FFB9B9"/>
<path d="M56.4766 159.746L51.8603 159.053L53.0144 113.978L46.5514 133.395L43.0891 160.671L38.7036 159.515L37.7803 131.083L42.8583 97.5664L68.2484 103.345L56.4766 159.746Z" fill="#D0CDE1"/>
<path d="M54.3568 170.842C53.8833 170.842 53.4149 170.743 52.982 170.55C52.549 170.358 52.161 170.077 51.843 169.726C51.5249 169.375 51.2838 168.96 51.1352 168.51C50.9866 168.06 50.9338 167.583 50.9802 167.111L51.697 159.813C51.7143 159.639 51.7741 159.471 51.8711 159.325C51.9682 159.179 52.0995 159.059 52.2536 158.976C53.6144 158.241 55.0137 158.419 56.446 159.379C56.5731 159.464 56.6801 159.577 56.7599 159.708C56.8396 159.839 56.8902 159.985 56.908 160.138L57.7262 167.044C57.7827 167.52 57.7376 168.004 57.5941 168.462C57.4506 168.92 57.2118 169.342 56.8934 169.701C56.5751 170.06 56.1845 170.347 55.7472 170.543C55.31 170.74 54.8362 170.842 54.3568 170.842Z" fill="#2F2E41"/>
<path d="M35.5134 170.294C35.0784 170.135 34.6853 169.878 34.3639 169.544C34.0425 169.209 33.8012 168.806 33.6583 168.365C33.5154 167.923 33.4745 167.455 33.5389 166.996C33.6032 166.536 33.7711 166.097 34.0297 165.712L38.954 158.382C40.7291 157.106 41.7998 157.728 42.216 160.111L43.2116 157.613L43.9617 158.433C44.3423 158.849 44.5638 159.386 44.5869 159.949C44.61 160.513 44.4333 161.067 44.088 161.512L38.9802 169.297C38.5827 169.81 38.0326 170.183 37.4094 170.362C36.7862 170.542 36.1222 170.518 35.5134 170.294Z" fill="#2F2E41"/>
<path d="M66.6321 54.1074C70.4564 54.1074 73.5567 51.0027 73.5567 47.1728C73.5567 43.343 70.4564 40.2383 66.6321 40.2383C62.8078 40.2383 59.7075 43.343 59.7075 47.1728C59.7075 51.0027 62.8078 54.1074 66.6321 54.1074Z" fill="#FFB9B9"/>
<path d="M71.0179 59.8894L59.2461 57.5779C60.7624 54.3392 61.9766 53.2434 60.631 49.7188H70.0946C69.26 53.3696 70.0665 56.7962 71.0179 59.8894Z" fill="#FFB9B9"/>
<path d="M69.6329 106.579L41.9346 98.7195C47.4826 86.4912 48.6447 73.0655 46.9997 58.8736C46.9597 58.5308 46.9891 58.1834 47.0861 57.8522C47.1832 57.5211 47.3459 57.2129 47.5646 56.9461C47.7832 56.6793 48.0534 56.4594 48.3588 56.2995C48.6643 56.1396 48.9988 56.0431 49.3424 56.0156C52.9553 55.7175 56.7221 55.335 60.6309 54.8008L65.0165 57.8057L70.0945 56.65C71.724 57.4409 73.3652 58.0987 74.8465 58.7545C76.1968 59.3538 77.2757 60.4354 77.8729 61.7882C78.4701 63.141 78.5426 64.6681 78.0764 66.0716C73.5632 79.7208 70.5422 93.241 69.6329 106.579Z" fill="#001D6D"/>
<path d="M39.3958 96.1789L34.0869 95.4855L46.6636 59.1956C47.3033 57.3497 48.8898 56.3505 50.8213 56.0742L52.6679 56.3054L51.283 77.8024L39.3958 96.1789Z" fill="#001D6D"/>
<path d="M80.9818 89.2413C80.0978 89.3094 79.2149 89.0961 78.4592 88.6319C77.7034 88.1677 77.1134 87.4763 76.7733 86.6564L71.7104 74.4506L75.8652 59.4258L76.9635 60.1257C77.0693 60.1931 77.1737 60.2622 77.2768 60.333C80.4401 62.5055 81.9792 66.3815 81.3343 70.168L80.2508 76.531L84.7205 86.1415C84.4933 86.9816 84.0119 87.7306 83.3424 88.2857C82.673 88.8407 81.8483 89.1746 80.9818 89.2413Z" fill="#001D6D"/>
<path d="M67.1647 36.8951C68.3479 36.9495 69.5004 37.2893 70.5243 37.8856C70.7597 38.0229 70.6509 38.5177 70.8685 38.6791C71.1425 38.8824 71.7376 38.7589 71.9803 38.997C72.7636 39.7628 73.3667 40.6938 73.7458 41.7223C74.1249 42.7508 74.2703 43.851 74.1717 44.9428L73.7853 48.7902L72.8738 47.7919C71.2394 45.9771 68.9705 44.8616 66.5372 44.6766C66.4339 44.6695 66.3303 44.664 66.2266 44.66L66.9278 43.431L65.7091 44.6515C65.1531 44.6577 64.5983 44.7029 64.0486 44.7869L64.9812 43.1525L63.1919 44.9445L63.1917 44.9446C62.4599 45.1057 61.7762 45.4368 61.1955 45.911C60.6149 46.3853 60.1536 46.9895 59.8488 47.675L59.6501 48.1161L59.4275 44.4457C59.4055 43.4312 59.5921 42.4231 59.9757 41.4839C60.3594 40.5447 60.9318 39.6946 61.6575 38.9864C62.3832 38.2783 63.2466 37.7271 64.194 37.3674C65.1414 37.0076 66.1526 36.8468 67.1647 36.8951Z" fill="#2F2E41"/>
<path d="M73.6021 49.8371C73.9092 49.8371 74.1583 49.2448 74.1583 48.5142C74.1583 47.7837 73.9092 47.1914 73.6021 47.1914C73.2949 47.1914 73.0459 47.7837 73.0459 48.5142C73.0459 49.2448 73.2949 49.8371 73.6021 49.8371Z" fill="#FFB9B9"/>
<path d="M59.6978 49.4191C60.0049 49.4191 60.254 48.8268 60.254 48.0963C60.254 47.3657 60.0049 46.7734 59.6978 46.7734C59.3906 46.7734 59.1416 47.3657 59.1416 48.0963C59.1416 48.8268 59.3906 49.4191 59.6978 49.4191Z" fill="#FFB9B9"/>
<path d="M86.7571 65.7678C87.2005 65.8765 87.6156 66.0787 87.9747 66.3609C88.3338 66.6432 88.6286 66.9989 88.8393 67.4044C89.0501 67.8099 89.1719 68.2558 89.1968 68.7123C89.2216 69.1688 89.1488 69.6253 88.9833 70.0513L85.8603 78.0901L82.2393 77.0852L82.7954 68.6748C82.8263 68.2071 82.9591 67.7518 83.1844 67.341C83.4098 66.9302 83.7222 66.5737 84.0997 66.2967C84.4773 66.0196 84.9108 65.8287 85.3699 65.7374C85.829 65.646 86.3024 65.6564 86.7571 65.7678Z" fill="#FFB9B9"/>
<path d="M82.5591 88.7825L76.7886 85.084L81.6358 75.1445L87.6371 77.456L84.6364 86.2398L82.5591 88.7825Z" fill="#001D6D"/>
<path d="M80.562 170.999H10.4531V170.512H80.6499L80.562 170.999Z" fill="#3F3D56"/>
</g>
<defs>
<clipPath id="clip0">
<rect width="166" height="171" fill="white"/>
</clipPath>
</defs>
</svg>
