<svg width="25" height="22" viewBox="0 0 25 22" fill="none" xmlns="http://www.w3.org/2000/svg">
<path d="M2.188 12.072C1.804 12.072 1.492 11.952 1.252 11.712C1.02 11.472 0.904 11.112 0.904 10.632C0.904 10.432 0.936 10.172 1 9.852L1.72 6.48H1.324L1.42 6H1.816L2.176 4.344L3.952 4.104L3.544 6H4.264L4.168 6.48H3.448L2.68 10.08C2.648 10.2 2.632 10.328 2.632 10.464C2.632 10.624 2.668 10.74 2.74 10.812C2.82 10.876 2.948 10.908 3.124 10.908C3.356 10.908 3.572 10.812 3.772 10.62C3.972 10.42 4.116 10.164 4.204 9.852H4.708C4.412 10.716 4.032 11.304 3.568 11.616C3.104 11.92 2.644 12.072 2.188 12.072ZM8.53122 12.072C8.04322 12.072 7.68322 11.944 7.45122 11.688C7.22722 11.424 7.11522 11.1 7.11522 10.716C7.11522 10.548 7.13522 10.36 7.17522 10.152C7.21522 9.936 7.25522 9.728 7.29522 9.528C7.34322 9.328 7.37522 9.2 7.39122 9.144C7.45522 8.864 7.51522 8.588 7.57122 8.316C7.62722 8.044 7.65522 7.824 7.65522 7.656C7.65522 7.248 7.51122 7.044 7.22322 7.044C7.01522 7.044 6.83122 7.148 6.67122 7.356C6.51122 7.556 6.38322 7.82 6.28722 8.148L5.47122 12H3.74322L5.48322 3.84L7.25922 3.6L6.61122 6.624C7.01122 6.176 7.47922 5.952 8.01522 5.952C8.42322 5.952 8.74722 6.064 8.98722 6.288C9.22722 6.512 9.34722 6.852 9.34722 7.308C9.34722 7.54 9.31922 7.8 9.26322 8.088C9.20722 8.368 9.12722 8.712 9.02322 9.12C8.95922 9.368 8.89922 9.612 8.84322 9.852C8.79522 10.084 8.77122 10.268 8.77122 10.404C8.77122 10.564 8.80722 10.688 8.87922 10.776C8.95122 10.864 9.07522 10.908 9.25122 10.908C9.49122 10.908 9.68322 10.824 9.82722 10.656C9.97122 10.48 10.1152 10.212 10.2592 9.852H10.7632C10.4672 10.732 10.1232 11.324 9.73122 11.628C9.34722 11.924 8.94722 12.072 8.53122 12.072ZM11.9498 12.072C11.3658 12.072 10.9098 11.92 10.5818 11.616C10.2538 11.304 10.0898 10.82 10.0898 10.164C10.0898 9.612 10.1978 9.004 10.4138 8.34C10.6298 7.676 10.9818 7.104 11.4698 6.624C11.9578 6.136 12.5778 5.892 13.3298 5.892C14.2098 5.892 14.6498 6.276 14.6498 7.044C14.6498 7.492 14.5218 7.904 14.2658 8.28C14.0098 8.656 13.6698 8.96 13.2458 9.192C12.8218 9.416 12.3698 9.544 11.8898 9.576C11.8738 9.752 11.8658 9.872 11.8658 9.936C11.8658 10.6 12.1138 10.932 12.6098 10.932C12.8338 10.932 13.0738 10.872 13.3298 10.752C13.5858 10.632 13.8178 10.48 14.0258 10.296C13.8098 11.48 13.1178 12.072 11.9498 12.072ZM11.9738 9C12.2778 8.992 12.5618 8.892 12.8258 8.7C13.0978 8.508 13.3138 8.264 13.4738 7.968C13.6418 7.664 13.7258 7.348 13.7258 7.02C13.7258 6.692 13.6258 6.528 13.4258 6.528C13.1458 6.528 12.8658 6.784 12.5858 7.296C12.3138 7.8 12.1098 8.368 11.9738 9Z" fill="#FAFAFA"/>
<path d="M4.716 19.072C4.124 19.072 3.664 18.92 3.336 18.616C3.008 18.304 2.844 17.82 2.844 17.164C2.844 16.612 2.952 16.004 3.168 15.34C3.392 14.676 3.744 14.104 4.224 13.624C4.712 13.136 5.328 12.892 6.072 12.892C6.552 12.892 6.892 12.996 7.092 13.204C7.3 13.412 7.404 13.676 7.404 13.996C7.404 14.276 7.344 14.492 7.224 14.644C7.104 14.796 6.952 14.872 6.768 14.872C6.632 14.872 6.492 14.824 6.348 14.728C6.444 14.464 6.492 14.228 6.492 14.02C6.492 13.868 6.464 13.748 6.408 13.66C6.352 13.572 6.268 13.528 6.156 13.528C5.916 13.528 5.676 13.724 5.436 14.116C5.196 14.508 5 14.984 4.848 15.544C4.696 16.104 4.62 16.608 4.62 17.056C4.62 17.448 4.688 17.716 4.824 17.86C4.96 17.996 5.18 18.064 5.484 18.064C5.916 18.064 6.284 17.964 6.588 17.764C6.9 17.564 7.24 17.26 7.608 16.852H8.016C7.128 18.332 6.028 19.072 4.716 19.072ZM8.42147 13H10.1495L9.99347 13.744C10.2655 13.504 10.5095 13.32 10.7255 13.192C10.9495 13.064 11.1895 13 11.4455 13C11.7015 13 11.9015 13.088 12.0455 13.264C12.1975 13.44 12.2735 13.652 12.2735 13.9C12.2735 14.132 12.1975 14.336 12.0455 14.512C11.8935 14.688 11.6815 14.776 11.4095 14.776C11.2335 14.776 11.1135 14.736 11.0495 14.656C10.9935 14.568 10.9495 14.444 10.9175 14.284C10.8935 14.18 10.8695 14.104 10.8455 14.056C10.8215 14.008 10.7775 13.984 10.7135 13.984C10.5455 13.984 10.4015 14.02 10.2815 14.092C10.1695 14.156 10.0215 14.272 9.83747 14.44L8.87747 19H7.14947L8.42147 13ZM13.8332 19.072C13.2412 19.072 12.7812 18.92 12.4532 18.616C12.1252 18.304 11.9612 17.82 11.9612 17.164C11.9612 16.612 12.0692 16.004 12.2852 15.34C12.5012 14.676 12.8532 14.104 13.3412 13.624C13.8292 13.136 14.4492 12.892 15.2012 12.892C16.0812 12.892 16.5212 13.276 16.5212 14.044C16.5212 14.492 16.3932 14.904 16.1372 15.28C15.8812 15.656 15.5412 15.96 15.1172 16.192C14.6932 16.416 14.2412 16.544 13.7612 16.576C13.7452 16.816 13.7372 16.976 13.7372 17.056C13.7372 17.448 13.8052 17.716 13.9412 17.86C14.0772 17.996 14.2972 18.064 14.6012 18.064C15.0332 18.064 15.4012 17.964 15.7052 17.764C16.0172 17.564 16.3572 17.26 16.7252 16.852H17.1332C16.2452 18.332 15.1452 19.072 13.8332 19.072ZM13.8572 16C14.1532 15.984 14.4332 15.88 14.6972 15.688C14.9692 15.496 15.1852 15.252 15.3452 14.956C15.5132 14.66 15.5972 14.348 15.5972 14.02C15.5972 13.692 15.4972 13.528 15.2972 13.528C15.0092 13.528 14.7252 13.78 14.4452 14.284C14.1732 14.788 13.9772 15.36 13.8572 16ZM17.9107 19.072C17.5267 19.072 17.2147 18.952 16.9747 18.712C16.7427 18.472 16.6267 18.112 16.6267 17.632C16.6267 17.432 16.6587 17.172 16.7227 16.852L17.5387 13H19.2667L18.4027 17.08C18.3787 17.176 18.3667 17.276 18.3667 17.38C18.3667 17.732 18.4867 17.908 18.7267 17.908C18.9507 17.908 19.1427 17.816 19.3027 17.632C19.4627 17.44 19.5907 17.18 19.6867 16.852L20.5027 13H22.2307L21.3667 17.08C21.3267 17.28 21.3067 17.424 21.3067 17.512C21.3067 17.776 21.4427 17.908 21.7147 17.908C22.0827 17.908 22.4227 17.676 22.7347 17.212C23.0547 16.748 23.3107 16.196 23.5027 15.556C23.6947 14.916 23.7907 14.364 23.7907 13.9C23.7747 13.94 23.7227 13.972 23.6347 13.996C23.5467 14.012 23.4707 14.02 23.4067 14.02C23.2707 14.02 23.1627 13.956 23.0827 13.828C23.0107 13.7 22.9747 13.56 22.9747 13.408C22.9747 13.216 23.0347 13.06 23.1547 12.94C23.2827 12.82 23.4707 12.76 23.7187 12.76C23.9827 12.76 24.1747 12.86 24.2947 13.06C24.4147 13.252 24.4747 13.5 24.4747 13.804C24.4747 14.524 24.3507 15.296 24.1027 16.12C23.8547 16.936 23.4747 17.632 22.9627 18.208C22.4507 18.784 21.8147 19.072 21.0547 19.072C20.6627 19.072 20.3427 18.988 20.0947 18.82C19.8467 18.652 19.6867 18.4 19.6147 18.064C19.1667 18.736 18.5987 19.072 17.9107 19.072Z" fill="#FAFAFA"/>
<g clip-path="url(#clip0_403_33)">
<path fill-rule="evenodd" clip-rule="evenodd" d="M17.6623 11.0424C17.6929 11.0424 17.7229 11.0521 17.7484 11.0702C17.7738 11.0882 17.7937 11.114 17.8054 11.144C17.8172 11.1741 17.8202 11.2072 17.8142 11.2392C17.8083 11.2711 17.7935 11.3004 17.7718 11.3235C17.7502 11.3465 17.7226 11.3622 17.6925 11.3685C17.6624 11.3749 17.6313 11.3716 17.603 11.3591C17.5747 11.3467 17.5505 11.3256 17.5334 11.2985C17.5164 11.2714 17.5073 11.2396 17.5073 11.207C17.5073 11.1634 17.5236 11.1215 17.5527 11.0906C17.5818 11.0598 17.6212 11.0424 17.6623 11.0424V11.0424ZM20.8672 6.54642C21.0441 6.58106 21.2163 6.6388 21.3799 6.71832C21.5451 6.80609 21.6379 6.91443 21.6379 7.03972C21.6379 7.23825 21.3839 7.40289 20.9743 7.50821L20.9173 7.52213V7.69947C20.9171 7.93119 20.8705 8.16021 20.7806 8.37133C20.6937 8.61029 20.5592 8.82647 20.3864 9.00505L20.3972 9.19208C20.4535 9.27751 20.5246 9.35066 20.6069 9.40756C20.7778 9.5044 21.0005 9.52438 21.2363 9.5498L20.939 10.6817H18.1898L17.8115 9.53951C18.077 9.48745 18.3487 9.41543 18.609 9.22174C18.6233 9.20903 18.637 9.19632 18.6506 9.1824L18.6603 8.90942C18.5261 8.74949 18.4286 8.55867 18.3755 8.35196C18.3108 8.11144 18.2816 7.86173 18.2889 7.61171V7.54815C18.2285 7.53544 18.171 7.52273 18.118 7.50821C17.709 7.40289 17.4532 7.23946 17.4532 7.03972C17.4532 6.91443 17.5461 6.80548 17.7118 6.71832C17.8821 6.63557 18.0614 6.57579 18.2456 6.54037V5.96839C18.2458 5.83974 18.271 5.71251 18.3195 5.59464C18.368 5.47676 18.4389 5.37076 18.5276 5.28322C18.7105 5.10023 18.9525 4.99883 19.2038 4.99995H19.9722C20.207 4.99922 20.4331 5.09409 20.604 5.26506C20.6864 5.3465 20.7523 5.445 20.7976 5.55451C20.8428 5.66402 20.8665 5.78221 20.8672 5.90181V6.54642ZM18.8654 7.63108C18.7355 7.61897 18.6119 7.60323 18.4957 7.58508V7.61413C18.4879 7.84568 18.5145 8.0771 18.5743 8.29991C18.6267 8.50731 18.7313 8.69563 18.8768 8.84465C19.1047 9.0795 19.3416 9.20176 19.5723 9.20237C19.8031 9.20298 20.0241 9.08979 20.2468 8.85313C20.3948 8.69423 20.511 8.50524 20.5886 8.29748C20.6693 8.10978 20.7111 7.90583 20.7111 7.69947V7.57237C20.354 7.64163 19.9918 7.67708 19.6287 7.67829C19.3732 7.67927 19.1179 7.6635 18.8643 7.63108H18.8654ZM18.2462 6.76977C18.0972 6.80035 17.9521 6.8493 17.8138 6.91564C17.7249 6.96285 17.6754 7.00522 17.6754 7.03972C17.6754 7.12265 17.8651 7.21283 18.1715 7.29152C18.2433 7.31028 18.3208 7.32723 18.4028 7.34236H18.4137H18.425C18.7954 7.40513 19.17 7.43549 19.545 7.43315C20.0063 7.4397 20.4669 7.39077 20.9179 7.28728C21.2244 7.21283 21.4118 7.12265 21.4118 7.03972C21.4118 7.00583 21.3622 6.96285 21.2739 6.91867C21.1432 6.8548 21.0059 6.80727 20.8649 6.77703V6.91443C20.8644 6.94152 20.8548 6.96751 20.8379 6.9878C20.821 7.00808 20.7979 7.02133 20.7726 7.0252C20.3732 7.12481 19.9644 7.17498 19.5541 7.1747C19.1414 7.17352 18.7301 7.12256 18.3282 7.02278C18.3046 7.01766 18.2834 7.00412 18.2681 6.98441C18.2527 6.9647 18.2442 6.94001 18.2439 6.91443V6.76977H18.2462ZM19.9722 5.2239H19.2038C19.0104 5.22309 18.824 5.30107 18.6831 5.4418C18.615 5.5091 18.5607 5.59059 18.5235 5.68119C18.4864 5.7718 18.4672 5.86956 18.4672 5.96839V6.82364C18.8251 6.90611 19.1902 6.9483 19.5564 6.94954C19.9227 6.9497 20.2879 6.90769 20.6456 6.82425V5.90181C20.645 5.812 20.6272 5.72326 20.5932 5.64103C20.5592 5.55881 20.5098 5.48483 20.4479 5.42364C20.3193 5.29481 20.149 5.22332 19.9722 5.2239V5.2239ZM20.248 9.1364C20.059 9.308 19.8198 9.4045 19.5712 9.40937C19.312 9.40937 19.0551 9.29135 18.8096 9.06618C18.8005 10.1412 20.2235 10.2162 20.248 9.1364ZM21.3981 11.0424C21.4287 11.0429 21.4584 11.0529 21.4836 11.0713C21.5087 11.0897 21.5283 11.1156 21.5396 11.1457C21.551 11.1758 21.5538 11.2088 21.5475 11.2406C21.5413 11.2724 21.5264 11.3015 21.5046 11.3243C21.4828 11.3471 21.4552 11.3625 21.4252 11.3687C21.3952 11.3748 21.3642 11.3714 21.336 11.3589C21.3078 11.3464 21.2838 11.3253 21.2668 11.2982C21.2499 11.2712 21.2409 11.2395 21.2409 11.207C21.2409 11.1634 21.2572 11.1215 21.2863 11.0906C21.3153 11.0598 21.3547 11.0424 21.3958 11.0424H21.3981ZM17.3729 9.62848C16.8841 9.74954 16.4557 10.0019 16.2142 11.1284L16 11.9999H17.1621V10.922C17.1621 10.8577 17.1861 10.7962 17.2288 10.7508C17.2716 10.7054 17.3295 10.6798 17.39 10.6798H17.6315C17.6195 10.2658 17.4242 9.8258 17.3729 9.62848ZM21.8983 11.9999H23L22.7721 11.0636C22.5614 10.0552 22.1347 9.74409 21.6898 9.62485C21.6448 9.82217 21.5069 10.2907 21.4995 10.6811H21.6704C21.7308 10.6811 21.7888 10.7066 21.8315 10.752C21.8743 10.7974 21.8983 10.859 21.8983 10.9232V12.0018V11.9999Z" fill="#FAFAFA"/>
</g>
<path d="M2.188 12.072C1.804 12.072 1.492 11.952 1.252 11.712C1.02 11.472 0.904 11.112 0.904 10.632C0.904 10.432 0.936 10.172 1 9.852L1.72 6.48H1.324L1.42 6H1.816L2.176 4.344L3.952 4.104L3.544 6H4.264L4.168 6.48H3.448L2.68 10.08C2.648 10.2 2.632 10.328 2.632 10.464C2.632 10.624 2.668 10.74 2.74 10.812C2.82 10.876 2.948 10.908 3.124 10.908C3.356 10.908 3.572 10.812 3.772 10.62C3.972 10.42 4.116 10.164 4.204 9.852H4.708C4.412 10.716 4.032 11.304 3.568 11.616C3.104 11.92 2.644 12.072 2.188 12.072ZM8.53122 12.072C8.04322 12.072 7.68322 11.944 7.45122 11.688C7.22722 11.424 7.11522 11.1 7.11522 10.716C7.11522 10.548 7.13522 10.36 7.17522 10.152C7.21522 9.936 7.25522 9.728 7.29522 9.528C7.34322 9.328 7.37522 9.2 7.39122 9.144C7.45522 8.864 7.51522 8.588 7.57122 8.316C7.62722 8.044 7.65522 7.824 7.65522 7.656C7.65522 7.248 7.51122 7.044 7.22322 7.044C7.01522 7.044 6.83122 7.148 6.67122 7.356C6.51122 7.556 6.38322 7.82 6.28722 8.148L5.47122 12H3.74322L5.48322 3.84L7.25922 3.6L6.61122 6.624C7.01122 6.176 7.47922 5.952 8.01522 5.952C8.42322 5.952 8.74722 6.064 8.98722 6.288C9.22722 6.512 9.34722 6.852 9.34722 7.308C9.34722 7.54 9.31922 7.8 9.26322 8.088C9.20722 8.368 9.12722 8.712 9.02322 9.12C8.95922 9.368 8.89922 9.612 8.84322 9.852C8.79522 10.084 8.77122 10.268 8.77122 10.404C8.77122 10.564 8.80722 10.688 8.87922 10.776C8.95122 10.864 9.07522 10.908 9.25122 10.908C9.49122 10.908 9.68322 10.824 9.82722 10.656C9.97122 10.48 10.1152 10.212 10.2592 9.852H10.7632C10.4672 10.732 10.1232 11.324 9.73122 11.628C9.34722 11.924 8.94722 12.072 8.53122 12.072ZM11.9498 12.072C11.3658 12.072 10.9098 11.92 10.5818 11.616C10.2538 11.304 10.0898 10.82 10.0898 10.164C10.0898 9.612 10.1978 9.004 10.4138 8.34C10.6298 7.676 10.9818 7.104 11.4698 6.624C11.9578 6.136 12.5778 5.892 13.3298 5.892C14.2098 5.892 14.6498 6.276 14.6498 7.044C14.6498 7.492 14.5218 7.904 14.2658 8.28C14.0098 8.656 13.6698 8.96 13.2458 9.192C12.8218 9.416 12.3698 9.544 11.8898 9.576C11.8738 9.752 11.8658 9.872 11.8658 9.936C11.8658 10.6 12.1138 10.932 12.6098 10.932C12.8338 10.932 13.0738 10.872 13.3298 10.752C13.5858 10.632 13.8178 10.48 14.0258 10.296C13.8098 11.48 13.1178 12.072 11.9498 12.072ZM11.9738 9C12.2778 8.992 12.5618 8.892 12.8258 8.7C13.0978 8.508 13.3138 8.264 13.4738 7.968C13.6418 7.664 13.7258 7.348 13.7258 7.02C13.7258 6.692 13.6258 6.528 13.4258 6.528C13.1458 6.528 12.8658 6.784 12.5858 7.296C12.3138 7.8 12.1098 8.368 11.9738 9Z" fill="#FAFAFA"/>
<path d="M4.716 19.072C4.124 19.072 3.664 18.92 3.336 18.616C3.008 18.304 2.844 17.82 2.844 17.164C2.844 16.612 2.952 16.004 3.168 15.34C3.392 14.676 3.744 14.104 4.224 13.624C4.712 13.136 5.328 12.892 6.072 12.892C6.552 12.892 6.892 12.996 7.092 13.204C7.3 13.412 7.404 13.676 7.404 13.996C7.404 14.276 7.344 14.492 7.224 14.644C7.104 14.796 6.952 14.872 6.768 14.872C6.632 14.872 6.492 14.824 6.348 14.728C6.444 14.464 6.492 14.228 6.492 14.02C6.492 13.868 6.464 13.748 6.408 13.66C6.352 13.572 6.268 13.528 6.156 13.528C5.916 13.528 5.676 13.724 5.436 14.116C5.196 14.508 5 14.984 4.848 15.544C4.696 16.104 4.62 16.608 4.62 17.056C4.62 17.448 4.688 17.716 4.824 17.86C4.96 17.996 5.18 18.064 5.484 18.064C5.916 18.064 6.284 17.964 6.588 17.764C6.9 17.564 7.24 17.26 7.608 16.852H8.016C7.128 18.332 6.028 19.072 4.716 19.072ZM8.42147 13H10.1495L9.99347 13.744C10.2655 13.504 10.5095 13.32 10.7255 13.192C10.9495 13.064 11.1895 13 11.4455 13C11.7015 13 11.9015 13.088 12.0455 13.264C12.1975 13.44 12.2735 13.652 12.2735 13.9C12.2735 14.132 12.1975 14.336 12.0455 14.512C11.8935 14.688 11.6815 14.776 11.4095 14.776C11.2335 14.776 11.1135 14.736 11.0495 14.656C10.9935 14.568 10.9495 14.444 10.9175 14.284C10.8935 14.18 10.8695 14.104 10.8455 14.056C10.8215 14.008 10.7775 13.984 10.7135 13.984C10.5455 13.984 10.4015 14.02 10.2815 14.092C10.1695 14.156 10.0215 14.272 9.83747 14.44L8.87747 19H7.14947L8.42147 13ZM13.8332 19.072C13.2412 19.072 12.7812 18.92 12.4532 18.616C12.1252 18.304 11.9612 17.82 11.9612 17.164C11.9612 16.612 12.0692 16.004 12.2852 15.34C12.5012 14.676 12.8532 14.104 13.3412 13.624C13.8292 13.136 14.4492 12.892 15.2012 12.892C16.0812 12.892 16.5212 13.276 16.5212 14.044C16.5212 14.492 16.3932 14.904 16.1372 15.28C15.8812 15.656 15.5412 15.96 15.1172 16.192C14.6932 16.416 14.2412 16.544 13.7612 16.576C13.7452 16.816 13.7372 16.976 13.7372 17.056C13.7372 17.448 13.8052 17.716 13.9412 17.86C14.0772 17.996 14.2972 18.064 14.6012 18.064C15.0332 18.064 15.4012 17.964 15.7052 17.764C16.0172 17.564 16.3572 17.26 16.7252 16.852H17.1332C16.2452 18.332 15.1452 19.072 13.8332 19.072ZM13.8572 16C14.1532 15.984 14.4332 15.88 14.6972 15.688C14.9692 15.496 15.1852 15.252 15.3452 14.956C15.5132 14.66 15.5972 14.348 15.5972 14.02C15.5972 13.692 15.4972 13.528 15.2972 13.528C15.0092 13.528 14.7252 13.78 14.4452 14.284C14.1732 14.788 13.9772 15.36 13.8572 16ZM17.9107 19.072C17.5267 19.072 17.2147 18.952 16.9747 18.712C16.7427 18.472 16.6267 18.112 16.6267 17.632C16.6267 17.432 16.6587 17.172 16.7227 16.852L17.5387 13H19.2667L18.4027 17.08C18.3787 17.176 18.3667 17.276 18.3667 17.38C18.3667 17.732 18.4867 17.908 18.7267 17.908C18.9507 17.908 19.1427 17.816 19.3027 17.632C19.4627 17.44 19.5907 17.18 19.6867 16.852L20.5027 13H22.2307L21.3667 17.08C21.3267 17.28 21.3067 17.424 21.3067 17.512C21.3067 17.776 21.4427 17.908 21.7147 17.908C22.0827 17.908 22.4227 17.676 22.7347 17.212C23.0547 16.748 23.3107 16.196 23.5027 15.556C23.6947 14.916 23.7907 14.364 23.7907 13.9C23.7747 13.94 23.7227 13.972 23.6347 13.996C23.5467 14.012 23.4707 14.02 23.4067 14.02C23.2707 14.02 23.1627 13.956 23.0827 13.828C23.0107 13.7 22.9747 13.56 22.9747 13.408C22.9747 13.216 23.0347 13.06 23.1547 12.94C23.2827 12.82 23.4707 12.76 23.7187 12.76C23.9827 12.76 24.1747 12.86 24.2947 13.06C24.4147 13.252 24.4747 13.5 24.4747 13.804C24.4747 14.524 24.3507 15.296 24.1027 16.12C23.8547 16.936 23.4747 17.632 22.9627 18.208C22.4507 18.784 21.8147 19.072 21.0547 19.072C20.6627 19.072 20.3427 18.988 20.0947 18.82C19.8467 18.652 19.6867 18.4 19.6147 18.064C19.1667 18.736 18.5987 19.072 17.9107 19.072Z" fill="#FAFAFA"/>
<g clip-path="url(#clip1_403_33)">
<path fill-rule="evenodd" clip-rule="evenodd" d="M17.6623 11.0424C17.6929 11.0424 17.7229 11.0521 17.7484 11.0702C17.7738 11.0882 17.7937 11.114 17.8054 11.144C17.8172 11.1741 17.8202 11.2072 17.8142 11.2392C17.8083 11.2711 17.7935 11.3004 17.7718 11.3235C17.7502 11.3465 17.7226 11.3622 17.6925 11.3685C17.6624 11.3749 17.6313 11.3716 17.603 11.3591C17.5747 11.3467 17.5505 11.3256 17.5334 11.2985C17.5164 11.2714 17.5073 11.2396 17.5073 11.207C17.5073 11.1634 17.5236 11.1215 17.5527 11.0906C17.5818 11.0598 17.6212 11.0424 17.6623 11.0424V11.0424ZM20.8672 6.54642C21.0441 6.58106 21.2163 6.6388 21.3799 6.71832C21.5451 6.80609 21.6379 6.91443 21.6379 7.03972C21.6379 7.23825 21.3839 7.40289 20.9743 7.50821L20.9173 7.52213V7.69947C20.9171 7.93119 20.8705 8.16021 20.7806 8.37133C20.6937 8.61029 20.5592 8.82647 20.3864 9.00505L20.3972 9.19208C20.4535 9.27751 20.5246 9.35066 20.6069 9.40756C20.7778 9.5044 21.0005 9.52438 21.2363 9.5498L20.939 10.6817H18.1898L17.8115 9.53951C18.077 9.48745 18.3487 9.41543 18.609 9.22174C18.6233 9.20903 18.637 9.19632 18.6506 9.1824L18.6603 8.90942C18.5261 8.74949 18.4286 8.55867 18.3755 8.35196C18.3108 8.11144 18.2816 7.86173 18.2889 7.61171V7.54815C18.2285 7.53544 18.171 7.52273 18.118 7.50821C17.709 7.40289 17.4532 7.23946 17.4532 7.03972C17.4532 6.91443 17.5461 6.80548 17.7118 6.71832C17.8821 6.63557 18.0614 6.57579 18.2456 6.54037V5.96839C18.2458 5.83974 18.271 5.71251 18.3195 5.59464C18.368 5.47676 18.4389 5.37076 18.5276 5.28322C18.7105 5.10023 18.9525 4.99883 19.2038 4.99995H19.9722C20.207 4.99922 20.4331 5.09409 20.604 5.26506C20.6864 5.3465 20.7523 5.445 20.7976 5.55451C20.8428 5.66402 20.8665 5.78221 20.8672 5.90181V6.54642ZM18.8654 7.63108C18.7355 7.61897 18.6119 7.60323 18.4957 7.58508V7.61413C18.4879 7.84568 18.5145 8.0771 18.5743 8.29991C18.6267 8.50731 18.7313 8.69563 18.8768 8.84465C19.1047 9.0795 19.3416 9.20176 19.5723 9.20237C19.8031 9.20298 20.0241 9.08979 20.2468 8.85313C20.3948 8.69423 20.511 8.50524 20.5886 8.29748C20.6693 8.10978 20.7111 7.90583 20.7111 7.69947V7.57237C20.354 7.64163 19.9918 7.67708 19.6287 7.67829C19.3732 7.67927 19.1179 7.6635 18.8643 7.63108H18.8654ZM18.2462 6.76977C18.0972 6.80035 17.9521 6.8493 17.8138 6.91564C17.7249 6.96285 17.6754 7.00522 17.6754 7.03972C17.6754 7.12265 17.8651 7.21283 18.1715 7.29152C18.2433 7.31028 18.3208 7.32723 18.4028 7.34236H18.4137H18.425C18.7954 7.40513 19.17 7.43549 19.545 7.43315C20.0063 7.4397 20.4669 7.39077 20.9179 7.28728C21.2244 7.21283 21.4118 7.12265 21.4118 7.03972C21.4118 7.00583 21.3622 6.96285 21.2739 6.91867C21.1432 6.8548 21.0059 6.80727 20.8649 6.77703V6.91443C20.8644 6.94152 20.8548 6.96751 20.8379 6.9878C20.821 7.00808 20.7979 7.02133 20.7726 7.0252C20.3732 7.12481 19.9644 7.17498 19.5541 7.1747C19.1414 7.17352 18.7301 7.12256 18.3282 7.02278C18.3046 7.01766 18.2834 7.00412 18.2681 6.98441C18.2527 6.9647 18.2442 6.94001 18.2439 6.91443V6.76977H18.2462ZM19.9722 5.2239H19.2038C19.0104 5.22309 18.824 5.30107 18.6831 5.4418C18.615 5.5091 18.5607 5.59059 18.5235 5.68119C18.4864 5.7718 18.4672 5.86956 18.4672 5.96839V6.82364C18.8251 6.90611 19.1902 6.9483 19.5564 6.94954C19.9227 6.9497 20.2879 6.90769 20.6456 6.82425V5.90181C20.645 5.812 20.6272 5.72326 20.5932 5.64103C20.5592 5.55881 20.5098 5.48483 20.4479 5.42364C20.3193 5.29481 20.149 5.22332 19.9722 5.2239V5.2239ZM20.248 9.1364C20.059 9.308 19.8198 9.4045 19.5712 9.40937C19.312 9.40937 19.0551 9.29135 18.8096 9.06618C18.8005 10.1412 20.2235 10.2162 20.248 9.1364ZM21.3981 11.0424C21.4287 11.0429 21.4584 11.0529 21.4836 11.0713C21.5087 11.0897 21.5283 11.1156 21.5396 11.1457C21.551 11.1758 21.5538 11.2088 21.5475 11.2406C21.5413 11.2724 21.5264 11.3015 21.5046 11.3243C21.4828 11.3471 21.4552 11.3625 21.4252 11.3687C21.3952 11.3748 21.3642 11.3714 21.336 11.3589C21.3078 11.3464 21.2838 11.3253 21.2668 11.2982C21.2499 11.2712 21.2409 11.2395 21.2409 11.207C21.2409 11.1634 21.2572 11.1215 21.2863 11.0906C21.3153 11.0598 21.3547 11.0424 21.3958 11.0424H21.3981ZM17.3729 9.62848C16.8841 9.74954 16.4557 10.0019 16.2142 11.1284L16 11.9999H17.1621V10.922C17.1621 10.8577 17.1861 10.7962 17.2288 10.7508C17.2716 10.7054 17.3295 10.6798 17.39 10.6798H17.6315C17.6195 10.2658 17.4242 9.8258 17.3729 9.62848ZM21.8983 11.9999H23L22.7721 11.0636C22.5614 10.0552 22.1347 9.74409 21.6898 9.62485C21.6448 9.82217 21.5069 10.2907 21.4995 10.6811H21.6704C21.7308 10.6811 21.7888 10.7066 21.8315 10.752C21.8743 10.7974 21.8983 10.859 21.8983 10.9232V12.0018V11.9999Z" fill="#FAFAFA"/>
</g>
<defs>
<clipPath id="clip0_403_33">
<rect width="7" height="7" fill="white" transform="translate(16 5)"/>
</clipPath>
<clipPath id="clip1_403_33">
<rect width="7" height="7" fill="white" transform="translate(16 5)"/>
</clipPath>
</defs>
</svg>
