<svg width="125" height="110" viewBox="0 0 125 110" fill="none" xmlns="http://www.w3.org/2000/svg">
<path d="M10.94 60.36C9.02002 60.36 7.46002 59.76 6.26002 58.56C5.10002 57.36 4.52002 55.56 4.52002 53.16C4.52002 52.16 4.68002 50.86 5.00002 49.26L8.60002 32.4H6.62002L7.10002 30H9.08002L10.88 21.72L19.76 20.52L17.72 30H21.32L20.84 32.4H17.24L13.4 50.4C13.24 51 13.16 51.64 13.16 52.32C13.16 53.12 13.34 53.7 13.7 54.06C14.1 54.38 14.74 54.54 15.62 54.54C16.78 54.54 17.86 54.06 18.86 53.1C19.86 52.1 20.58 50.82 21.02 49.26H23.54C22.06 53.58 20.16 56.52 17.84 58.08C15.52 59.6 13.22 60.36 10.94 60.36ZM42.6561 60.36C40.2161 60.36 38.4161 59.72 37.2561 58.44C36.1361 57.12 35.5761 55.5 35.5761 53.58C35.5761 52.74 35.6761 51.8 35.8761 50.76C36.0761 49.68 36.2761 48.64 36.4761 47.64C36.7161 46.64 36.8761 46 36.9561 45.72C37.2761 44.32 37.5761 42.94 37.8561 41.58C38.1361 40.22 38.2761 39.12 38.2761 38.28C38.2761 36.24 37.5561 35.22 36.1161 35.22C35.0761 35.22 34.1561 35.74 33.3561 36.78C32.5561 37.78 31.9161 39.1 31.4361 40.74L27.3561 60H18.7161L27.4161 19.2L36.2961 18L33.0561 33.12C35.0561 30.88 37.3961 29.76 40.0761 29.76C42.1161 29.76 43.7361 30.32 44.9361 31.44C46.1361 32.56 46.7361 34.26 46.7361 36.54C46.7361 37.7 46.5961 39 46.3161 40.44C46.0361 41.84 45.6361 43.56 45.1161 45.6C44.7961 46.84 44.4961 48.06 44.2161 49.26C43.9761 50.42 43.8561 51.34 43.8561 52.02C43.8561 52.82 44.0361 53.44 44.3961 53.88C44.7561 54.32 45.3761 54.54 46.2561 54.54C47.4561 54.54 48.4161 54.12 49.1361 53.28C49.8561 52.4 50.576 51.06 51.296 49.26H53.816C52.336 53.66 50.616 56.62 48.6561 58.14C46.7361 59.62 44.7361 60.36 42.6561 60.36ZM59.749 60.36C56.829 60.36 54.549 59.6 52.909 58.08C51.269 56.52 50.449 54.1 50.449 50.82C50.449 48.06 50.989 45.02 52.069 41.7C53.149 38.38 54.909 35.52 57.349 33.12C59.789 30.68 62.889 29.46 66.649 29.46C71.049 29.46 73.249 31.38 73.249 35.22C73.249 37.46 72.609 39.52 71.329 41.4C70.049 43.28 68.349 44.8 66.229 45.96C64.109 47.08 61.849 47.72 59.449 47.88C59.369 48.76 59.329 49.36 59.329 49.68C59.329 53 60.569 54.66 63.049 54.66C64.169 54.66 65.369 54.36 66.649 53.76C67.929 53.16 69.089 52.4 70.129 51.48C69.049 57.4 65.589 60.36 59.749 60.36ZM59.869 45C61.389 44.96 62.809 44.46 64.129 43.5C65.489 42.54 66.569 41.32 67.369 39.84C68.209 38.32 68.629 36.74 68.629 35.1C68.629 33.46 68.129 32.64 67.129 32.64C65.729 32.64 64.329 33.92 62.929 36.48C61.569 39 60.549 41.84 59.869 45Z" fill="#FAFAFA"/>
<path d="M23.58 95.36C20.62 95.36 18.32 94.6 16.68 93.08C15.04 91.52 14.22 89.1 14.22 85.82C14.22 83.06 14.76 80.02 15.84 76.7C16.96 73.38 18.72 70.52 21.12 68.12C23.56 65.68 26.64 64.46 30.36 64.46C32.76 64.46 34.46 64.98 35.46 66.02C36.5 67.06 37.02 68.38 37.02 69.98C37.02 71.38 36.72 72.46 36.12 73.22C35.52 73.98 34.76 74.36 33.84 74.36C33.16 74.36 32.46 74.12 31.74 73.64C32.22 72.32 32.46 71.14 32.46 70.1C32.46 69.34 32.32 68.74 32.04 68.3C31.76 67.86 31.34 67.64 30.78 67.64C29.58 67.64 28.38 68.62 27.18 70.58C25.98 72.54 25 74.92 24.24 77.72C23.48 80.52 23.1 83.04 23.1 85.28C23.1 87.24 23.44 88.58 24.12 89.3C24.8 89.98 25.9 90.32 27.42 90.32C29.58 90.32 31.42 89.82 32.94 88.82C34.5 87.82 36.2 86.3 38.04 84.26H40.08C35.64 91.66 30.14 95.36 23.58 95.36ZM42.1074 65H50.7475L49.9674 68.72C51.3275 67.52 52.5475 66.6 53.6275 65.96C54.7475 65.32 55.9475 65 57.2275 65C58.5075 65 59.5075 65.44 60.2275 66.32C60.9875 67.2 61.3675 68.26 61.3675 69.5C61.3675 70.66 60.9875 71.68 60.2275 72.56C59.4675 73.44 58.4075 73.88 57.0475 73.88C56.1675 73.88 55.5675 73.68 55.2475 73.28C54.9675 72.84 54.7475 72.22 54.5875 71.42C54.4675 70.9 54.3475 70.52 54.2275 70.28C54.1075 70.04 53.8875 69.92 53.5675 69.92C52.7275 69.92 52.0075 70.1 51.4075 70.46C50.8475 70.78 50.1075 71.36 49.1874 72.2L44.3874 95H35.7473L42.1074 65ZM69.166 95.36C66.206 95.36 63.906 94.6 62.266 93.08C60.626 91.52 59.806 89.1 59.806 85.82C59.806 83.06 60.346 80.02 61.426 76.7C62.506 73.38 64.266 70.52 66.706 68.12C69.146 65.68 72.246 64.46 76.006 64.46C80.406 64.46 82.606 66.38 82.606 70.22C82.606 72.46 81.966 74.52 80.686 76.4C79.406 78.28 77.706 79.8 75.586 80.96C73.466 82.08 71.206 82.72 68.806 82.88C68.726 84.08 68.686 84.88 68.686 85.28C68.686 87.24 69.026 88.58 69.706 89.3C70.386 89.98 71.486 90.32 73.006 90.32C75.166 90.32 77.006 89.82 78.526 88.82C80.086 87.82 81.786 86.3 83.626 84.26H85.666C81.226 91.66 75.726 95.36 69.166 95.36ZM69.286 80C70.766 79.92 72.166 79.4 73.486 78.44C74.846 77.48 75.926 76.26 76.726 74.78C77.566 73.3 77.986 71.74 77.986 70.1C77.986 68.46 77.486 67.64 76.486 67.64C75.046 67.64 73.626 68.9 72.226 71.42C70.866 73.94 69.886 76.8 69.286 80ZM89.5535 95.36C87.6335 95.36 86.0735 94.76 84.8735 93.56C83.7135 92.36 83.1335 90.56 83.1335 88.16C83.1335 87.16 83.2935 85.86 83.6135 84.26L87.6935 65H96.3335L92.0135 85.4C91.8935 85.88 91.8335 86.38 91.8335 86.9C91.8335 88.66 92.4335 89.54 93.6335 89.54C94.7535 89.54 95.7135 89.08 96.5135 88.16C97.3135 87.2 97.9535 85.9 98.4335 84.26L102.514 65H111.153L106.833 85.4C106.633 86.4 106.534 87.12 106.534 87.56C106.534 88.88 107.214 89.54 108.574 89.54C110.414 89.54 112.113 88.38 113.673 86.06C115.273 83.74 116.554 80.98 117.514 77.78C118.474 74.58 118.954 71.82 118.954 69.5C118.874 69.7 118.614 69.86 118.174 69.98C117.734 70.06 117.354 70.1 117.034 70.1C116.354 70.1 115.814 69.78 115.414 69.14C115.054 68.5 114.874 67.8 114.874 67.04C114.874 66.08 115.173 65.3 115.773 64.7C116.413 64.1 117.354 63.8 118.594 63.8C119.914 63.8 120.874 64.3 121.474 65.3C122.074 66.26 122.374 67.5 122.374 69.02C122.374 72.62 121.753 76.48 120.513 80.6C119.273 84.68 117.374 88.16 114.814 91.04C112.254 93.92 109.074 95.36 105.274 95.36C103.314 95.36 101.714 94.94 100.474 94.1C99.2335 93.26 98.4335 92 98.0735 90.32C95.8335 93.68 92.9935 95.36 89.5535 95.36Z" fill="#FAFAFA"/>
<path fill-rule="evenodd" clip-rule="evenodd" d="M88.3115 55.212C88.4645 55.212 88.6145 55.2605 88.742 55.351C88.869 55.441 88.9685 55.57 89.027 55.72C89.086 55.8705 89.101 56.036 89.071 56.196C89.0415 56.3555 88.9675 56.502 88.859 56.6175C88.751 56.7325 88.613 56.811 88.4625 56.8425C88.312 56.8745 88.1565 56.858 88.015 56.7955C87.8735 56.7335 87.7525 56.628 87.667 56.4925C87.582 56.357 87.5365 56.198 87.5365 56.035C87.5365 55.817 87.618 55.6075 87.7635 55.453C87.909 55.299 88.106 55.212 88.3115 55.212ZM104.336 32.7321C105.221 32.9053 106.081 33.194 106.899 33.5916C107.725 34.0305 108.189 34.5722 108.189 35.1986C108.189 36.1913 106.92 37.0145 104.872 37.5411L104.586 37.6107V38.4974C104.585 39.656 104.352 40.8011 103.903 41.8567C103.468 43.0515 102.796 44.1324 101.932 45.0253L101.986 45.9604C102.267 46.3876 102.623 46.7533 103.034 47.0378C103.889 47.522 105.002 47.6219 106.181 47.749L104.695 53.4085H90.949L89.0575 47.6976C90.385 47.4373 91.7435 47.0772 93.045 46.1087C93.1165 46.0452 93.185 45.9816 93.253 45.912L93.3015 44.5471C92.6305 43.7475 92.143 42.7934 91.8775 41.7598C91.554 40.5572 91.408 39.3087 91.4445 38.0586V37.7408C91.1425 37.6772 90.855 37.6137 90.59 37.5411C88.545 37.0145 87.266 36.1973 87.266 35.1986C87.266 34.5722 87.7305 34.0274 88.559 33.5916C89.4105 33.1779 90.307 32.879 91.228 32.7019V29.842C91.229 29.1987 91.355 28.5626 91.5975 27.9732C91.84 27.3838 92.1945 26.8538 92.638 26.4161C93.5525 25.5012 94.7625 24.9942 96.019 24.9998H99.861C101.035 24.9961 102.166 25.4705 103.02 26.3253C103.432 26.7325 103.761 27.225 103.988 27.7726C104.214 28.3201 104.333 28.9111 104.336 29.5091V32.7321ZM94.327 38.1554C93.6775 38.0949 93.0595 38.0162 92.4785 37.9254V38.0707C92.4395 39.2284 92.5725 40.3855 92.8715 41.4996C93.1335 42.5366 93.6565 43.4782 94.384 44.2233C95.5235 45.3975 96.708 46.0088 97.8615 46.0119C99.0155 46.0149 100.12 45.449 101.234 44.2657C101.974 43.4712 102.555 42.5262 102.943 41.4874C103.347 40.5489 103.555 39.5292 103.555 38.4974V37.8619C101.77 38.2082 99.959 38.3854 98.1435 38.3915C96.866 38.3964 95.5895 38.3175 94.3215 38.1554H94.327ZM91.231 33.8489C90.486 34.0018 89.7605 34.2465 89.069 34.5782C88.6245 34.8143 88.377 35.0261 88.377 35.1986C88.377 35.6133 89.3255 36.0642 90.8575 36.4576C91.2165 36.5514 91.604 36.6362 92.014 36.7118H92.0685H92.125C93.977 37.0257 95.85 37.1775 97.725 37.1658C100.032 37.1985 102.335 36.9539 104.59 36.4364C106.122 36.0642 107.059 35.6133 107.059 35.1986C107.059 35.0292 106.811 34.8143 106.369 34.5934C105.716 34.274 105.03 34.0364 104.325 33.8852V34.5722C104.322 34.7076 104.274 34.8376 104.19 34.939C104.105 35.0404 103.99 35.1067 103.863 35.126C101.866 35.6241 99.822 35.8749 97.7705 35.8735C95.707 35.8676 93.6505 35.6128 91.641 35.1139C91.523 35.0883 91.417 35.0206 91.3405 34.9221C91.2635 34.8235 91.221 34.7001 91.2195 34.5722V33.8489H91.231ZM99.861 26.1195H96.019C95.052 26.1155 94.12 26.5054 93.4155 27.209C93.075 27.5455 92.8035 27.953 92.6175 28.406C92.432 28.859 92.336 29.3478 92.336 29.842V34.1182C94.1255 34.5306 95.951 34.7415 97.782 34.7477C99.6135 34.7485 101.439 34.5385 103.228 34.1213V29.5091C103.225 29.06 103.136 28.6163 102.966 28.2052C102.796 27.7941 102.549 27.4242 102.24 27.1182C101.597 26.4741 100.745 26.1166 99.861 26.1195ZM101.24 45.682C100.295 46.54 99.099 47.0225 97.856 47.0469C96.56 47.0469 95.2755 46.4568 94.048 45.3309C94.0025 50.706 101.117 51.081 101.24 45.682ZM106.99 55.212C107.143 55.2145 107.292 55.2645 107.418 55.3565C107.544 55.4485 107.642 55.578 107.698 55.7285C107.755 55.879 107.769 56.044 107.738 56.203C107.707 56.362 107.632 56.5075 107.523 56.6215C107.414 56.7355 107.276 56.8125 107.126 56.8435C106.976 56.874 106.821 56.857 106.68 56.7945C106.539 56.732 106.419 56.6265 106.334 56.491C106.249 56.356 106.205 56.1975 106.205 56.035C106.205 55.817 106.286 55.6075 106.432 55.453C106.577 55.299 106.773 55.212 106.979 55.212H106.99ZM86.8645 48.1424C84.4205 48.7477 82.2785 50.0095 81.071 55.642L80 59.9995H85.8105V54.61C85.8105 54.2885 85.9305 53.981 86.144 53.754C86.358 53.527 86.6475 53.399 86.95 53.399H88.1575C88.0975 51.329 87.121 49.129 86.8645 48.1424ZM109.492 59.9995H115L113.861 55.318C112.807 50.276 110.674 48.7205 108.449 48.1243C108.224 49.1109 107.535 51.4535 107.498 53.4055H108.352C108.654 53.4055 108.944 53.533 109.157 53.76C109.371 53.987 109.492 54.295 109.492 54.616V60.009V59.9995Z" fill="#FAFAFA"/>
<path d="M10.94 60.36C9.02002 60.36 7.46002 59.76 6.26002 58.56C5.10002 57.36 4.52002 55.56 4.52002 53.16C4.52002 52.16 4.68002 50.86 5.00002 49.26L8.60002 32.4H6.62002L7.10002 30H9.08002L10.88 21.72L19.76 20.52L17.72 30H21.32L20.84 32.4H17.24L13.4 50.4C13.24 51 13.16 51.64 13.16 52.32C13.16 53.12 13.34 53.7 13.7 54.06C14.1 54.38 14.74 54.54 15.62 54.54C16.78 54.54 17.86 54.06 18.86 53.1C19.86 52.1 20.58 50.82 21.02 49.26H23.54C22.06 53.58 20.16 56.52 17.84 58.08C15.52 59.6 13.22 60.36 10.94 60.36ZM42.6561 60.36C40.2161 60.36 38.4161 59.72 37.2561 58.44C36.1361 57.12 35.5761 55.5 35.5761 53.58C35.5761 52.74 35.6761 51.8 35.8761 50.76C36.0761 49.68 36.2761 48.64 36.4761 47.64C36.7161 46.64 36.8761 46 36.9561 45.72C37.2761 44.32 37.5761 42.94 37.8561 41.58C38.1361 40.22 38.2761 39.12 38.2761 38.28C38.2761 36.24 37.5561 35.22 36.1161 35.22C35.0761 35.22 34.1561 35.74 33.3561 36.78C32.5561 37.78 31.9161 39.1 31.4361 40.74L27.3561 60H18.7161L27.4161 19.2L36.2961 18L33.0561 33.12C35.0561 30.88 37.3961 29.76 40.0761 29.76C42.1161 29.76 43.7361 30.32 44.9361 31.44C46.1361 32.56 46.7361 34.26 46.7361 36.54C46.7361 37.7 46.5961 39 46.3161 40.44C46.0361 41.84 45.6361 43.56 45.1161 45.6C44.7961 46.84 44.4961 48.06 44.2161 49.26C43.9761 50.42 43.8561 51.34 43.8561 52.02C43.8561 52.82 44.0361 53.44 44.3961 53.88C44.7561 54.32 45.3761 54.54 46.2561 54.54C47.4561 54.54 48.4161 54.12 49.1361 53.28C49.8561 52.4 50.576 51.06 51.296 49.26H53.816C52.336 53.66 50.616 56.62 48.6561 58.14C46.7361 59.62 44.7361 60.36 42.6561 60.36ZM59.749 60.36C56.829 60.36 54.549 59.6 52.909 58.08C51.269 56.52 50.449 54.1 50.449 50.82C50.449 48.06 50.989 45.02 52.069 41.7C53.149 38.38 54.909 35.52 57.349 33.12C59.789 30.68 62.889 29.46 66.649 29.46C71.049 29.46 73.249 31.38 73.249 35.22C73.249 37.46 72.609 39.52 71.329 41.4C70.049 43.28 68.349 44.8 66.229 45.96C64.109 47.08 61.849 47.72 59.449 47.88C59.369 48.76 59.329 49.36 59.329 49.68C59.329 53 60.569 54.66 63.049 54.66C64.169 54.66 65.369 54.36 66.649 53.76C67.929 53.16 69.089 52.4 70.129 51.48C69.049 57.4 65.589 60.36 59.749 60.36ZM59.869 45C61.389 44.96 62.809 44.46 64.129 43.5C65.489 42.54 66.569 41.32 67.369 39.84C68.209 38.32 68.629 36.74 68.629 35.1C68.629 33.46 68.129 32.64 67.129 32.64C65.729 32.64 64.329 33.92 62.929 36.48C61.569 39 60.549 41.84 59.869 45Z" fill="#9D9D9D"/>
<path d="M23.58 95.36C20.62 95.36 18.32 94.6 16.68 93.08C15.04 91.52 14.22 89.1 14.22 85.82C14.22 83.06 14.76 80.02 15.84 76.7C16.96 73.38 18.72 70.52 21.12 68.12C23.56 65.68 26.64 64.46 30.36 64.46C32.76 64.46 34.46 64.98 35.46 66.02C36.5 67.06 37.02 68.38 37.02 69.98C37.02 71.38 36.72 72.46 36.12 73.22C35.52 73.98 34.76 74.36 33.84 74.36C33.16 74.36 32.46 74.12 31.74 73.64C32.22 72.32 32.46 71.14 32.46 70.1C32.46 69.34 32.32 68.74 32.04 68.3C31.76 67.86 31.34 67.64 30.78 67.64C29.58 67.64 28.38 68.62 27.18 70.58C25.98 72.54 25 74.92 24.24 77.72C23.48 80.52 23.1 83.04 23.1 85.28C23.1 87.24 23.44 88.58 24.12 89.3C24.8 89.98 25.9 90.32 27.42 90.32C29.58 90.32 31.42 89.82 32.94 88.82C34.5 87.82 36.2 86.3 38.04 84.26H40.08C35.64 91.66 30.14 95.36 23.58 95.36ZM42.1074 65H50.7475L49.9674 68.72C51.3275 67.52 52.5475 66.6 53.6275 65.96C54.7475 65.32 55.9475 65 57.2275 65C58.5075 65 59.5075 65.44 60.2275 66.32C60.9875 67.2 61.3675 68.26 61.3675 69.5C61.3675 70.66 60.9875 71.68 60.2275 72.56C59.4675 73.44 58.4075 73.88 57.0475 73.88C56.1675 73.88 55.5675 73.68 55.2475 73.28C54.9675 72.84 54.7475 72.22 54.5875 71.42C54.4675 70.9 54.3475 70.52 54.2275 70.28C54.1075 70.04 53.8875 69.92 53.5675 69.92C52.7275 69.92 52.0075 70.1 51.4075 70.46C50.8475 70.78 50.1075 71.36 49.1874 72.2L44.3874 95H35.7473L42.1074 65ZM69.166 95.36C66.206 95.36 63.906 94.6 62.266 93.08C60.626 91.52 59.806 89.1 59.806 85.82C59.806 83.06 60.346 80.02 61.426 76.7C62.506 73.38 64.266 70.52 66.706 68.12C69.146 65.68 72.246 64.46 76.006 64.46C80.406 64.46 82.606 66.38 82.606 70.22C82.606 72.46 81.966 74.52 80.686 76.4C79.406 78.28 77.706 79.8 75.586 80.96C73.466 82.08 71.206 82.72 68.806 82.88C68.726 84.08 68.686 84.88 68.686 85.28C68.686 87.24 69.026 88.58 69.706 89.3C70.386 89.98 71.486 90.32 73.006 90.32C75.166 90.32 77.006 89.82 78.526 88.82C80.086 87.82 81.786 86.3 83.626 84.26H85.666C81.226 91.66 75.726 95.36 69.166 95.36ZM69.286 80C70.766 79.92 72.166 79.4 73.486 78.44C74.846 77.48 75.926 76.26 76.726 74.78C77.566 73.3 77.986 71.74 77.986 70.1C77.986 68.46 77.486 67.64 76.486 67.64C75.046 67.64 73.626 68.9 72.226 71.42C70.866 73.94 69.886 76.8 69.286 80ZM89.5535 95.36C87.6335 95.36 86.0735 94.76 84.8735 93.56C83.7135 92.36 83.1335 90.56 83.1335 88.16C83.1335 87.16 83.2935 85.86 83.6135 84.26L87.6935 65H96.3335L92.0135 85.4C91.8935 85.88 91.8335 86.38 91.8335 86.9C91.8335 88.66 92.4335 89.54 93.6335 89.54C94.7535 89.54 95.7135 89.08 96.5135 88.16C97.3135 87.2 97.9535 85.9 98.4335 84.26L102.514 65H111.153L106.833 85.4C106.633 86.4 106.534 87.12 106.534 87.56C106.534 88.88 107.214 89.54 108.574 89.54C110.414 89.54 112.113 88.38 113.673 86.06C115.273 83.74 116.554 80.98 117.514 77.78C118.474 74.58 118.954 71.82 118.954 69.5C118.874 69.7 118.614 69.86 118.174 69.98C117.734 70.06 117.354 70.1 117.034 70.1C116.354 70.1 115.814 69.78 115.414 69.14C115.054 68.5 114.874 67.8 114.874 67.04C114.874 66.08 115.173 65.3 115.773 64.7C116.413 64.1 117.354 63.8 118.594 63.8C119.914 63.8 120.874 64.3 121.474 65.3C122.074 66.26 122.374 67.5 122.374 69.02C122.374 72.62 121.753 76.48 120.513 80.6C119.273 84.68 117.374 88.16 114.814 91.04C112.254 93.92 109.074 95.36 105.274 95.36C103.314 95.36 101.714 94.94 100.474 94.1C99.2335 93.26 98.4335 92 98.0735 90.32C95.8335 93.68 92.9935 95.36 89.5535 95.36Z" fill="#9D9D9D"/>
<path fill-rule="evenodd" clip-rule="evenodd" d="M88.3115 55.212C88.4645 55.212 88.6145 55.2605 88.742 55.351C88.869 55.441 88.9685 55.57 89.027 55.72C89.086 55.8705 89.101 56.036 89.071 56.196C89.0415 56.3555 88.9675 56.502 88.859 56.6175C88.751 56.7325 88.613 56.811 88.4625 56.8425C88.312 56.8745 88.1565 56.858 88.015 56.7955C87.8735 56.7335 87.7525 56.628 87.667 56.4925C87.582 56.357 87.5365 56.198 87.5365 56.035C87.5365 55.817 87.618 55.6075 87.7635 55.453C87.909 55.299 88.106 55.212 88.3115 55.212ZM104.336 32.7321C105.221 32.9053 106.081 33.194 106.899 33.5916C107.725 34.0305 108.189 34.5722 108.189 35.1986C108.189 36.1913 106.92 37.0145 104.872 37.5411L104.586 37.6107V38.4974C104.585 39.656 104.352 40.8011 103.903 41.8567C103.468 43.0515 102.796 44.1324 101.932 45.0253L101.986 45.9604C102.267 46.3876 102.623 46.7533 103.034 47.0378C103.889 47.522 105.002 47.6219 106.181 47.749L104.695 53.4085H90.949L89.0575 47.6976C90.385 47.4373 91.7435 47.0772 93.045 46.1087C93.1165 46.0452 93.185 45.9816 93.253 45.912L93.3015 44.5471C92.6305 43.7475 92.143 42.7934 91.8775 41.7598C91.554 40.5572 91.408 39.3087 91.4445 38.0586V37.7408C91.1425 37.6772 90.855 37.6137 90.59 37.5411C88.545 37.0145 87.266 36.1973 87.266 35.1986C87.266 34.5722 87.7305 34.0274 88.559 33.5916C89.4105 33.1779 90.307 32.879 91.228 32.7019V29.842C91.229 29.1987 91.355 28.5626 91.5975 27.9732C91.84 27.3838 92.1945 26.8538 92.638 26.4161C93.5525 25.5012 94.7625 24.9942 96.019 24.9998H99.861C101.035 24.9961 102.166 25.4705 103.02 26.3253C103.432 26.7325 103.761 27.225 103.988 27.7726C104.214 28.3201 104.333 28.9111 104.336 29.5091V32.7321ZM94.327 38.1554C93.6775 38.0949 93.0595 38.0162 92.4785 37.9254V38.0707C92.4395 39.2284 92.5725 40.3855 92.8715 41.4996C93.1335 42.5366 93.6565 43.4782 94.384 44.2233C95.5235 45.3975 96.708 46.0088 97.8615 46.0119C99.0155 46.0149 100.12 45.449 101.234 44.2657C101.974 43.4712 102.555 42.5262 102.943 41.4874C103.347 40.5489 103.555 39.5292 103.555 38.4974V37.8619C101.77 38.2082 99.959 38.3854 98.1435 38.3915C96.866 38.3964 95.5895 38.3175 94.3215 38.1554H94.327ZM91.231 33.8489C90.486 34.0018 89.7605 34.2465 89.069 34.5782C88.6245 34.8143 88.377 35.0261 88.377 35.1986C88.377 35.6133 89.3255 36.0642 90.8575 36.4576C91.2165 36.5514 91.604 36.6362 92.014 36.7118H92.0685H92.125C93.977 37.0257 95.85 37.1775 97.725 37.1658C100.032 37.1985 102.335 36.9539 104.59 36.4364C106.122 36.0642 107.059 35.6133 107.059 35.1986C107.059 35.0292 106.811 34.8143 106.369 34.5934C105.716 34.274 105.03 34.0364 104.325 33.8852V34.5722C104.322 34.7076 104.274 34.8376 104.19 34.939C104.105 35.0404 103.99 35.1067 103.863 35.126C101.866 35.6241 99.822 35.8749 97.7705 35.8735C95.707 35.8676 93.6505 35.6128 91.641 35.1139C91.523 35.0883 91.417 35.0206 91.3405 34.9221C91.2635 34.8235 91.221 34.7001 91.2195 34.5722V33.8489H91.231ZM99.861 26.1195H96.019C95.052 26.1155 94.12 26.5054 93.4155 27.209C93.075 27.5455 92.8035 27.953 92.6175 28.406C92.432 28.859 92.336 29.3478 92.336 29.842V34.1182C94.1255 34.5306 95.951 34.7415 97.782 34.7477C99.6135 34.7485 101.439 34.5385 103.228 34.1213V29.5091C103.225 29.06 103.136 28.6163 102.966 28.2052C102.796 27.7941 102.549 27.4242 102.24 27.1182C101.597 26.4741 100.745 26.1166 99.861 26.1195ZM101.24 45.682C100.295 46.54 99.099 47.0225 97.856 47.0469C96.56 47.0469 95.2755 46.4568 94.048 45.3309C94.0025 50.706 101.117 51.081 101.24 45.682ZM106.99 55.212C107.143 55.2145 107.292 55.2645 107.418 55.3565C107.544 55.4485 107.642 55.578 107.698 55.7285C107.755 55.879 107.769 56.044 107.738 56.203C107.707 56.362 107.632 56.5075 107.523 56.6215C107.414 56.7355 107.276 56.8125 107.126 56.8435C106.976 56.874 106.821 56.857 106.68 56.7945C106.539 56.732 106.419 56.6265 106.334 56.491C106.249 56.356 106.205 56.1975 106.205 56.035C106.205 55.817 106.286 55.6075 106.432 55.453C106.577 55.299 106.773 55.212 106.979 55.212H106.99ZM86.8645 48.1424C84.4205 48.7477 82.2785 50.0095 81.071 55.642L80 59.9995H85.8105V54.61C85.8105 54.2885 85.9305 53.981 86.144 53.754C86.358 53.527 86.6475 53.399 86.95 53.399H88.1575C88.0975 51.329 87.121 49.129 86.8645 48.1424ZM109.492 59.9995H115L113.861 55.318C112.807 50.276 110.674 48.7205 108.449 48.1243C108.224 49.1109 107.535 51.4535 107.498 53.4055H108.352C108.654 53.4055 108.944 53.533 109.157 53.76C109.371 53.987 109.492 54.295 109.492 54.616V60.009V59.9995Z" fill="#9D9D9D"/>
</svg>
